<?xml version="1.0" encoding="utf-8"?>
<svg version="1.1" xmlns:xlink="http://www.w3.org/1999/xlink" width="62px" height="39px" xmlns="http://www.w3.org/2000/svg">
  <defs>
    <mask fill="white" id="clip73">
      <path d="M 0 24  L 0 5  C 0 2.19999999999999  1.04000000000002 0  2.36363636363636 0  L 40.0051948051948 0  L 49.6363636363636 0  C 50.96 0  52 2.19999999999999  52 5  L 52 24  C 52 26.8  50.96 29  49.6363636363636 29  L 2.36363636363636 29  C 1.04000000000002 29  0 26.8  0 24  Z " fill-rule="evenodd" />
    </mask>
    <filter x="893px" y="297px" width="62px" height="39px" filterUnits="userSpaceOnUse" id="filter74">
      <feOffset dx="5" dy="5" in="SourceAlpha" result="shadowOffsetInner" />
      <feGaussianBlur stdDeviation="2.5" in="shadowOffsetInner" result="shadowGaussian" />
      <feComposite in2="shadowGaussian" operator="atop" in="SourceAlpha" result="shadowComposite" />
      <feColorMatrix type="matrix" values="0 0 0 0 0  0 0 0 0 0  0 0 0 0 0  0 0 0 0.349019607843137 0  " in="shadowComposite" />
    </filter>
    <g id="widget75">
      <path d="M 0 24  L 0 5  C 0 2.19999999999999  1.04000000000002 0  2.36363636363636 0  L 40.0051948051948 0  L 49.6363636363636 0  C 50.96 0  52 2.19999999999999  52 5  L 52 24  C 52 26.8  50.96 29  49.6363636363636 29  L 2.36363636363636 29  C 1.04000000000002 29  0 26.8  0 24  Z " fill-rule="nonzero" fill="#ec808d" stroke="none" fill-opacity="0.866666666666667" transform="matrix(1 0 0 1 893 297 )" />
      <path d="M 0 24  L 0 5  C 0 2.19999999999999  1.04000000000002 0  2.36363636363636 0  L 40.0051948051948 0  L 49.6363636363636 0  C 50.96 0  52 2.19999999999999  52 5  L 52 24  C 52 26.8  50.96 29  49.6363636363636 29  L 2.36363636363636 29  C 1.04000000000002 29  0 26.8  0 24  Z " stroke-width="2" stroke="#797979" fill="none" transform="matrix(1 0 0 1 893 297 )" mask="url(#clip73)" />
    </g>
  </defs>
  <g transform="matrix(1 0 0 1 -893 -297 )">
    <use xlink:href="#widget75" filter="url(#filter74)" />
    <use xlink:href="#widget75" />
  </g>
</svg>